<svg width="24" height="24" viewBox="0 0 24 24" fill="currentColor" xmlns="http://www.w3.org/2000/svg">
<path fill-rule="evenodd" clip-rule="evenodd" d="M10.8819 17.757C11.5857 17.4051 12.4141 17.4051 13.118 17.757L16.8625 19.6292L16.1178 15.5338C15.9711 14.7267 16.2297 13.8989 16.8098 13.3189L19.9149 10.2137L15.661 9.44026C14.8868 9.2995 14.2241 8.80244 13.8722 8.09862L11.9999 4.35412L10.1277 8.09862L8.78603 7.4278L11.1055 2.78887C11.474 2.05182 12.5258 2.05182 12.8944 2.78887L15.2138 7.4278C15.3546 7.70933 15.6197 7.90815 15.9294 7.96446L21.1221 8.9086C21.9158 9.0529 22.2208 10.0292 21.6504 10.5996L17.8704 14.3795C17.6384 14.6116 17.535 14.9427 17.5937 15.2655L18.5172 20.3448C18.6646 21.1555 17.8231 21.7866 17.0861 21.4181L12.4471 19.0986C12.1656 18.9579 11.8342 18.9579 11.5527 19.0986L6.91378 21.4181C6.17673 21.7866 5.33529 21.1555 5.4827 20.3448L6.4062 15.2655C6.4649 14.9427 6.36147 14.6116 6.12944 14.3795L2.34949 10.5996C1.77909 10.0292 2.08406 9.0529 2.87771 8.9086L8.07049 7.96446C8.38017 7.90815 8.64527 7.70933 8.78603 7.4278L10.1277 8.09862C9.77577 8.80244 9.11302 9.2995 8.33882 9.44026L4.08493 10.2137L7.1901 13.3189C7.77018 13.8989 8.02876 14.7267 7.882 15.5338L7.13739 19.6292L10.8819 17.757Z"/>
</svg>
