<svg width="24" height="24" viewBox="0 0 24 24" fill="currentColor" xmlns="http://www.w3.org/2000/svg">
<path fill-rule="evenodd" clip-rule="evenodd" d="M16 6C16.7403 6 17.3866 5.5978 17.7324 5H20C20.5523 5 21 5.44772 21 6V8.12602C19.2748 8.57006 18 10.1362 18 12C18 13.8638 19.2748 15.4299 21 15.874V18C21 18.5523 20.5523 19 20 19H17.7324C17.3866 18.4022 16.7403 18 16 18C15.2597 18 14.6134 18.4022 14.2676 19H4C3.44772 19 3 18.5523 3 18V15.874C4.72523 15.4299 6 13.8638 6 12C6 10.1362 4.72523 8.57006 3 8.12602V6C3 5.44772 3.44772 5 4 5H14.2676C14.6134 5.5978 15.2597 6 16 6ZM19 12C19 10.3431 20.3431 9 22 9V6C22 4.89543 21.1046 4 20 4H17C17 4.55228 16.5523 5 16 5C15.4477 5 15 4.55228 15 4H4C2.89543 4 2 4.89543 2 6V9C3.65685 9 5 10.3431 5 12C5 13.6569 3.65685 15 2 15V18C2 19.1046 2.89543 20 4 20H15C15 19.4477 15.4477 19 16 19C16.5523 19 17 19.4477 17 20H20C21.1046 20 22 19.1046 22 18V15C20.3431 15 19 13.6569 19 12ZM16 9C16.5523 9 17 8.55229 17 8C17 7.44772 16.5523 7 16 7C15.4477 7 15 7.44772 15 8C15 8.55229 15.4477 9 16 9ZM16 13C16.5523 13 17 12.5523 17 12C17 11.4477 16.5523 11 16 11C15.4477 11 15 11.4477 15 12C15 12.5523 15.4477 13 16 13ZM17 16C17 16.5523 16.5523 17 16 17C15.4477 17 15 16.5523 15 16C15 15.4477 15.4477 15 16 15C16.5523 15 17 15.4477 17 16Z"/>
</svg>
