<svg width="24" height="24" viewBox="0 0 24 24" fill="currentColor" xmlns="http://www.w3.org/2000/svg">
<path fill-rule="evenodd" clip-rule="evenodd" d="M12 10.5C13.933 10.5 15.5 8.933 15.5 7C15.5 5.067 13.933 3.5 12 3.5C10.067 3.5 8.5 5.067 8.5 7C8.5 8.933 10.067 10.5 12 10.5ZM12 12C14.7614 12 17 9.76142 17 7C17 4.23858 14.7614 2 12 2C9.23858 2 7 4.23858 7 7C7 9.76142 9.23858 12 12 12Z"/>
<path fill-rule="evenodd" clip-rule="evenodd" d="M19.5 17.6515C17.5925 15.7049 14.9381 14.5 12 14.5C9.0619 14.5 6.40748 15.7049 4.5 17.6515V19.5H19.5V17.6515ZM21 17.4407C21 17.197 20.9122 16.9605 20.7453 16.7829C18.5565 14.4543 15.4481 13 12 13C8.55192 13 5.44351 14.4543 3.25467 16.7829C3.08776 16.9605 3 17.197 3 17.4407V20C3 20.5523 3.44772 21 4 21H20C20.5523 21 21 20.5523 21 20V17.4407Z"/>
</svg>
