<svg width="24" height="24" viewBox="0 0 24 24" fill="currentColor" xmlns="http://www.w3.org/2000/svg">
<path fill-rule="evenodd" clip-rule="evenodd" d="M10.3798 8.08505C9.98438 8.34727 9.51003 8.5 9 8.5C7.61929 8.5 6.5 7.38071 6.5 6C6.5 4.61929 7.61929 3.5 9 3.5C10.3807 3.5 11.5 4.61929 11.5 6C11.5 6.16199 11.4846 6.32039 11.4552 6.4738C11.8858 6.04086 12.3953 5.68637 12.9602 5.43364C12.6851 3.49272 11.0169 2 9 2C6.79086 2 5 3.79086 5 6C5 7.61962 5.96259 9.01442 7.34689 9.6435C7.85075 9.87247 8.41048 10 9 10C9.34586 10 9.68148 9.9561 10.0016 9.87358C10.0173 9.24128 10.1503 8.63811 10.3798 8.08505ZM10.1163 11.0773C9.75153 11.0263 9.37884 11 9 11C8.38393 11 7.78412 11.0696 7.20803 11.2015C5.67695 11.5518 4.31332 12.3415 3.25684 13.4308C3.08717 13.6057 3 13.8428 3 14.0865V16C3 16.5523 3.44772 17 4 17H8.51082C9.02804 16.4281 9.60296 15.9239 10.2246 15.5H4.5V14.3096C5.6693 13.1873 7.2532 12.5 9 12.5C9.63592 12.5 10.2503 12.5911 10.8308 12.7611C10.4961 12.2566 10.2504 11.6878 10.1163 11.0773ZM15 12.5C16.3807 12.5 17.5 11.3807 17.5 10C17.5 8.61929 16.3807 7.5 15 7.5C13.6193 7.5 12.5 8.61929 12.5 10C12.5 11.3807 13.6193 12.5 15 12.5ZM15 14C17.2091 14 19 12.2091 19 10C19 7.79086 17.2091 6 15 6C12.7909 6 11 7.79086 11 10C11 12.2091 12.7909 14 15 14ZM15 16.5C16.7468 16.5 18.3307 17.1873 19.5 18.3096V19.5H10.5V18.3096C11.6693 17.1873 13.2532 16.5 15 16.5ZM20.7432 17.4308C20.9128 17.6057 21 17.8428 21 18.0865V20C21 20.5523 20.5523 21 20 21H10C9.44771 21 9 20.5523 9 20V18.0865C9 17.8428 9.08717 17.6057 9.25684 17.4308C10.7108 15.9317 12.7466 15 15 15C17.2534 15 19.2892 15.9317 20.7432 17.4308Z"/>
</svg>
