<svg width="24" height="24" viewBox="0 0 24 24" fill="none" xmlns="http://www.w3.org/2000/svg">
<path d="M8.78603 7.4278L11.1055 2.78887C11.474 2.05182 12.5258 2.05182 12.8944 2.78887L15.2138 7.4278C15.3546 7.70933 15.6197 7.90815 15.9294 7.96446L21.1221 8.9086C21.9158 9.0529 22.2208 10.0292 21.6504 10.5996L17.8704 14.3795C17.6384 14.6116 17.535 14.9427 17.5937 15.2655L18.5172 20.3448C18.6646 21.1555 17.8231 21.7866 17.0861 21.4181L12.4471 19.0986C12.1656 18.9579 11.8342 18.9579 11.5527 19.0986L6.91378 21.4181C6.17673 21.7866 5.33529 21.1555 5.4827 20.3448L6.4062 15.2655C6.4649 14.9427 6.36147 14.6116 6.12944 14.3795L2.34949 10.5996C1.77909 10.0292 2.08406 9.0529 2.87771 8.9086L8.07049 7.96446C8.38017 7.90815 8.64527 7.70933 8.78603 7.4278Z" fill="black"/>
</svg>
