<svg width="24" height="24" viewBox="0 0 24 24" fill="none" xmlns="http://www.w3.org/2000/svg">
<path fill-rule="evenodd" clip-rule="evenodd" d="M5 3C3.89543 3 3 3.89543 3 5V19C3 20.1046 3.89543 21 5 21H12.5398V14.0408H10V11.1319H12.5398V8.91484C12.5398 6.3936 14.0332 5 16.317 5C17.411 5 18.5558 5.19666 18.5558 5.19666V7.67262H17.2943C16.0526 7.67262 15.6645 8.44795 15.6645 9.24448V11.1318H18.4376L17.9946 14.0407H15.6644V21H19C20.1046 21 21 20.1046 21 19V5C21 3.89543 20.1046 3 19 3H5Z" fill="black"/>
</svg>
