<svg width="24" height="24" viewBox="0 0 24 24" fill="none" xmlns="http://www.w3.org/2000/svg">
<path fill-rule="evenodd" clip-rule="evenodd" d="M5 3C3.89543 3 3 3.89543 3 5V19C3 20.1046 3.89543 21 5 21H19C20.1046 21 21 20.1046 21 19V5C21 3.89543 20.1046 3 19 3H5ZM6 7.09512C6.00065 6.21316 6.71816 5.49579 7.59942 5.49579C8.48097 5.49579 9.19815 6.21325 9.19815 7.09512C9.19815 7.97708 8.48101 8.69459 7.59942 8.69459C6.71751 8.69459 6 7.97708 6 7.09512ZM8.7998 9.3372H6.39884C6.28464 9.3372 6.192 9.42979 6.192 9.5441V17.272C6.192 17.3863 6.28464 17.4789 6.39884 17.4789H8.79975C8.91401 17.4789 9.00665 17.3863 9.00665 17.272V9.5441C9.00669 9.42975 8.91405 9.3372 8.7998 9.3372ZM12.8158 9.95005C13.2869 9.51377 14.0591 9.24622 14.9377 9.24622C17.6519 9.24622 18 11.2699 18 13.0329V17.272C18 17.3863 17.9074 17.4789 17.7932 17.4789H15.3934C15.2791 17.4789 15.1865 17.3863 15.1865 17.272V13.5142C15.1865 12.402 15.1122 11.6729 14.1201 11.6717C13.1131 11.6717 12.9113 12.3516 12.9113 13.4487V17.272C12.9113 17.3863 12.8187 17.4789 12.7044 17.4789H10.3058C10.1915 17.4789 10.0989 17.3863 10.0989 17.272V9.54409C10.0989 9.42979 10.1915 9.3372 10.3058 9.3372H12.6089C12.7231 9.3372 12.8158 9.42979 12.8158 9.54409V9.95005Z" fill="#2E63BD"/>
</svg>
