<svg width="24" height="24" viewBox="0 0 24 24" fill="currentColor" xmlns="http://www.w3.org/2000/svg">
<path fill-rule="evenodd" clip-rule="evenodd" d="M4 5.5H20C20.2761 5.5 20.5 5.72386 20.5 6V7.79223L12.4642 11.0065C12.1662 11.1257 11.8338 11.1257 11.5358 11.0065L3.5 7.79223V6C3.5 5.72386 3.72386 5.5 4 5.5ZM2 8.80778V11V18C2 19.1046 2.89543 20 4 20H20C21.1046 20 22 19.1046 22 18V11V8.80778V7.19223V6C22 4.89543 21.1046 4 20 4H4C2.89543 4 2 4.89543 2 6V7.19223V8.80778ZM20.5 9.40777V18C20.5 18.2761 20.2761 18.5 20 18.5H4C3.72386 18.5 3.5 18.2761 3.5 18V9.40777L10.9787 12.3992C11.6343 12.6615 12.3657 12.6615 13.0213 12.3992L20.5 9.40777Z"/>
</svg>
