<svg width="24" height="24" viewBox="0 0 24 24" fill="none" xmlns="http://www.w3.org/2000/svg">
<path d="M5.39913 2C4.07724 2 3.00097 3.07606 3 4.399C3 5.72193 4.07627 6.7982 5.39913 6.7982C6.72152 6.7982 7.79723 5.72193 7.79723 4.399C7.79723 3.0762 6.72145 2 5.39913 2Z" fill="black"/>
<path d="M7.19979 7.76208H3.59836C3.42704 7.76208 3.28809 7.90097 3.28809 8.07242V19.6644C3.28809 19.8357 3.42704 19.9746 3.59836 19.9746H7.19972C7.3711 19.9746 7.51006 19.8357 7.51006 19.6644V8.07242C7.51013 7.9009 7.37117 7.76208 7.19979 7.76208Z" fill="black"/>
<path d="M16.4067 7.62561C15.0887 7.62561 13.9305 8.02693 13.2238 8.68135V8.07242C13.2238 7.90097 13.0848 7.76208 12.9134 7.76208H9.45878C9.2874 7.76208 9.14844 7.90097 9.14844 8.07242V19.6643C9.14844 19.8357 9.2874 19.9746 9.45878 19.9746H13.0568C13.2281 19.9746 13.3671 19.8357 13.3671 19.6643V13.9293C13.3671 12.2837 13.6698 11.2638 15.1802 11.2638C16.6684 11.2656 16.7798 12.3593 16.7798 14.0276V19.6643C16.7798 19.8357 16.9187 19.9746 17.0902 19.9746H20.6898C20.8611 19.9746 21.0001 19.8357 21.0001 19.6643V13.3057C21 10.6611 20.4779 7.62561 16.4067 7.62561Z" fill="black"/>
</svg>
