<svg width="24" height="24" viewBox="0 0 24 24" fill="currentColor" xmlns="http://www.w3.org/2000/svg">
<path fill-rule="evenodd" clip-rule="evenodd" d="M12 20.5C16.6944 20.5 20.5 16.6944 20.5 12C20.5 7.30558 16.6944 3.5 12 3.5C7.30558 3.5 3.5 7.30558 3.5 12C3.5 16.6944 7.30558 20.5 12 20.5ZM12 22C17.5228 22 22 17.5228 22 12C22 6.47715 17.5228 2 12 2C6.47715 2 2 6.47715 2 12C2 17.5228 6.47715 22 12 22Z"/>
<path fill-rule="evenodd" clip-rule="evenodd" d="M18.5303 8.46967C18.8232 8.76256 18.8232 9.23744 18.5303 9.53033L11.591 16.4697C10.7123 17.3483 9.28769 17.3484 8.40901 16.4697L5.46967 13.5303C5.17678 13.2374 5.17678 12.7626 5.46967 12.4697C5.76256 12.1768 6.23744 12.1768 6.53033 12.4697L9.46967 15.409C9.76256 15.7019 10.2374 15.7019 10.5303 15.409L17.4697 8.46967C17.7626 8.17678 18.2374 8.17678 18.5303 8.46967Z"/>
</svg>
