<svg width="389" height="97" viewBox="0 0 389 97" fill="none" xmlns="http://www.w3.org/2000/svg">
<path d="M31.392 75.48C26.4 75.48 21.984 74.36 18.144 72.12C14.304 69.816 11.296 66.648 9.12 62.616C6.944 58.584 5.856 53.976 5.856 48.792C5.856 43.544 7.008 38.904 9.312 34.872C11.616 30.84 14.752 27.704 18.72 25.464C22.752 23.16 27.36 22.008 32.544 22.008C37.664 22.008 42.208 23.16 46.176 25.464C50.208 27.704 53.344 30.84 55.584 34.872C57.888 38.904 59.072 43.544 59.136 48.792L54.336 50.424C54.336 55.288 53.344 59.608 51.36 63.384C49.44 67.16 46.752 70.136 43.296 72.312C39.84 74.424 35.872 75.48 31.392 75.48ZM32.544 96.024C27.68 96.024 23.296 95.096 19.392 93.24C15.552 91.384 12.32 88.792 9.696 85.464C8.992 84.632 8.704 83.704 8.832 82.68C8.96 81.72 9.472 80.952 10.368 80.376C11.328 79.736 12.352 79.512 13.44 79.704C14.528 79.896 15.392 80.44 16.032 81.336C17.824 83.576 20.128 85.368 22.944 86.712C25.76 88.056 29.024 88.728 32.736 88.728C36.128 88.728 39.232 87.896 42.048 86.232C44.864 84.632 47.072 82.296 48.672 79.224C50.336 76.152 51.168 72.504 51.168 68.28V54.072L54.048 47.544L59.136 48.792V68.76C59.136 73.88 57.984 78.488 55.68 82.584C53.376 86.744 50.24 90.008 46.272 92.376C42.304 94.808 37.728 96.024 32.544 96.024ZM32.544 68.184C36.192 68.184 39.392 67.352 42.144 65.688C44.96 64.024 47.168 61.752 48.768 58.872C50.368 55.928 51.168 52.568 51.168 48.792C51.168 45.016 50.368 41.656 48.768 38.712C47.168 35.768 44.96 33.464 42.144 31.8C39.392 30.136 36.192 29.304 32.544 29.304C28.896 29.304 25.664 30.136 22.848 31.8C20.032 33.464 17.792 35.768 16.128 38.712C14.528 41.656 13.728 45.016 13.728 48.792C13.728 52.568 14.528 55.928 16.128 58.872C17.792 61.752 20.032 64.024 22.848 65.688C25.664 67.352 28.896 68.184 32.544 68.184ZM98.111 75.48C92.863 75.48 88.223 74.36 84.191 72.12C80.159 69.816 76.991 66.648 74.687 62.616C72.383 58.584 71.231 53.976 71.231 48.792C71.231 43.544 72.319 38.936 74.495 34.968C76.671 30.936 79.647 27.768 83.423 25.464C87.263 23.16 91.679 22.008 96.671 22.008C101.535 22.008 105.759 23.128 109.343 25.368C112.991 27.544 115.775 30.584 117.695 34.488C119.679 38.392 120.671 42.84 120.671 47.832C120.671 48.92 120.319 49.816 119.615 50.52C118.911 51.16 118.015 51.48 116.927 51.48H76.799V44.856H117.407L113.279 47.736C113.343 44.216 112.703 41.048 111.359 38.232C110.015 35.416 108.095 33.208 105.599 31.608C103.103 30.008 100.127 29.208 96.671 29.208C93.023 29.208 89.823 30.04 87.071 31.704C84.383 33.368 82.303 35.704 80.831 38.712C79.423 41.656 78.719 45.016 78.719 48.792C78.719 52.568 79.551 55.928 81.215 58.872C82.879 61.816 85.151 64.12 88.031 65.784C90.975 67.448 94.335 68.28 98.111 68.28C100.287 68.28 102.495 67.896 104.735 67.128C107.039 66.36 108.863 65.4 110.207 64.248C110.975 63.672 111.839 63.384 112.799 63.384C113.823 63.32 114.655 63.576 115.295 64.152C116.255 64.984 116.735 65.88 116.735 66.84C116.799 67.8 116.383 68.632 115.487 69.336C113.375 71.128 110.687 72.6 107.423 73.752C104.159 74.904 101.055 75.48 98.111 75.48ZM178.503 75C177.287 75 176.295 74.616 175.527 73.848C174.759 73.08 174.375 72.12 174.375 70.968V46.488C174.375 42.584 173.639 39.416 172.167 36.984C170.759 34.488 168.807 32.632 166.311 31.416C163.815 30.136 160.967 29.496 157.767 29.496C154.759 29.496 152.039 30.104 149.607 31.32C147.239 32.472 145.351 34.072 143.943 36.12C142.535 38.104 141.831 40.408 141.831 43.032H136.263C136.391 39 137.447 35.416 139.431 32.28C141.479 29.08 144.199 26.552 147.591 24.696C150.983 22.84 154.759 21.912 158.919 21.912C163.399 21.912 167.399 22.872 170.919 24.792C174.503 26.648 177.319 29.4 179.367 33.048C181.479 36.696 182.535 41.176 182.535 46.488V70.968C182.535 72.12 182.151 73.08 181.383 73.848C180.615 74.616 179.655 75 178.503 75ZM137.799 75C136.519 75 135.495 74.648 134.727 73.944C134.023 73.176 133.671 72.184 133.671 70.968V26.616C133.671 25.336 134.023 24.344 134.727 23.64C135.495 22.872 136.519 22.488 137.799 22.488C139.015 22.488 139.975 22.872 140.679 23.64C141.447 24.344 141.831 25.336 141.831 26.616V70.968C141.831 72.184 141.447 73.176 140.679 73.944C139.975 74.648 139.015 75 137.799 75ZM219.392 75C216.064 75 213.088 74.2 210.464 72.6C207.84 71 205.76 68.792 204.224 65.976C202.752 63.16 202.016 59.992 202.016 56.472V9.816C202.016 8.664 202.368 7.704 203.072 6.936C203.84 6.168 204.832 5.784 206.048 5.784C207.2 5.784 208.16 6.168 208.928 6.936C209.696 7.704 210.08 8.664 210.08 9.816V56.472C210.08 59.48 210.944 61.976 212.672 63.96C214.464 65.944 216.704 66.936 219.392 66.936H222.272C223.296 66.936 224.16 67.32 224.864 68.088C225.568 68.856 225.92 69.816 225.92 70.968C225.92 72.184 225.472 73.176 224.576 73.944C223.744 74.648 222.656 75 221.312 75H219.392ZM196.352 31.416C195.264 31.416 194.368 31.096 193.664 30.456C192.96 29.752 192.608 28.92 192.608 27.96C192.608 26.936 192.96 26.104 193.664 25.464C194.368 24.76 195.264 24.408 196.352 24.408H220.064C221.152 24.408 222.048 24.76 222.752 25.464C223.456 26.104 223.808 26.936 223.808 27.96C223.808 28.92 223.456 29.752 222.752 30.456C222.048 31.096 221.152 31.416 220.064 31.416H196.352ZM250.165 75C247.477 75 245.109 74.296 243.061 72.888C241.013 71.416 239.413 69.4 238.261 66.84C237.109 64.28 236.533 61.336 236.533 58.008V4.056C236.533 2.84 236.885 1.88 237.589 1.17599C238.357 0.407997 239.349 0.0239983 240.565 0.0239983C241.717 0.0239983 242.645 0.407997 243.349 1.17599C244.117 1.88 244.501 2.84 244.501 4.056V58.008C244.501 60.632 245.013 62.808 246.037 64.536C247.125 66.2 248.501 67.032 250.165 67.032H252.565C253.589 67.032 254.421 67.416 255.061 68.184C255.701 68.888 256.021 69.816 256.021 70.968C256.021 72.184 255.541 73.176 254.581 73.944C253.685 74.648 252.501 75 251.029 75H250.165ZM287.799 75.48C282.551 75.48 277.911 74.36 273.879 72.12C269.847 69.816 266.679 66.648 264.375 62.616C262.071 58.584 260.919 53.976 260.919 48.792C260.919 43.544 262.007 38.936 264.183 34.968C266.359 30.936 269.335 27.768 273.111 25.464C276.951 23.16 281.367 22.008 286.359 22.008C291.223 22.008 295.447 23.128 299.031 25.368C302.679 27.544 305.463 30.584 307.383 34.488C309.367 38.392 310.359 42.84 310.359 47.832C310.359 48.92 310.007 49.816 309.302 50.52C308.599 51.16 307.703 51.48 306.615 51.48H266.487V44.856H307.095L302.967 47.736C303.031 44.216 302.391 41.048 301.047 38.232C299.703 35.416 297.783 33.208 295.287 31.608C292.791 30.008 289.815 29.208 286.359 29.208C282.711 29.208 279.511 30.04 276.759 31.704C274.071 33.368 271.991 35.704 270.519 38.712C269.111 41.656 268.407 45.016 268.407 48.792C268.407 52.568 269.239 55.928 270.903 58.872C272.567 61.816 274.839 64.12 277.719 65.784C280.663 67.448 284.023 68.28 287.799 68.28C289.975 68.28 292.183 67.896 294.423 67.128C296.727 66.36 298.551 65.4 299.895 64.248C300.663 63.672 301.527 63.384 302.487 63.384C303.511 63.32 304.343 63.576 304.983 64.152C305.943 64.984 306.423 65.88 306.423 66.84C306.487 67.8 306.071 68.632 305.175 69.336C303.063 71.128 300.375 72.6 297.111 73.752C293.847 74.904 290.743 75.48 287.799 75.48Z" fill="url(#paint0_linear_2043_42)"/>
<path d="M329.65 74.4C327.15 74.4 325 73.5 323.2 71.7C321.4 69.9 320.5 67.75 320.5 65.25C320.5 62.55 321.4 60.3 323.2 58.5C325.1 56.7 327.25 55.8 329.65 55.8C332.25 55.8 334.45 56.75 336.25 58.65C338.05 60.45 338.95 62.65 338.95 65.25C338.95 67.65 338.05 69.8 336.25 71.7C334.55 73.5 332.35 74.4 329.65 74.4Z" fill="#FFCC99"/>
<defs>
<linearGradient id="paint0_linear_2043_42" x1="62.5" y1="75" x2="276.77" y2="40.5872" gradientUnits="userSpaceOnUse">
<stop stop-color="#6699FF"/>
<stop offset="1" stop-color="#E477FF"/>
</linearGradient>
</defs>
</svg>
