<svg width="238" height="153" viewBox="0 0 238 153" fill="none" xmlns="http://www.w3.org/2000/svg">
<path d="M39.2344 81.5625C39.2344 82.0312 39.0938 82.5938 38.8125 83.25C38.5781 83.8594 38.25 84.5156 37.8281 85.2188C37.4531 85.875 37.0312 86.5547 36.5625 87.2578C36.0938 87.9609 35.6484 88.5938 35.2266 89.1562L34.1719 90.6328L33.1172 92.4609L32.2031 94.1484C32.25 95.0859 32.3203 96.0938 32.4141 97.1719C32.5078 98.25 32.6016 99.2812 32.6953 100.266C33.2109 105.094 33.6562 110.016 34.0312 115.031C34.4531 120.047 34.6641 124.969 34.6641 129.797C34.6641 132.375 34.4531 134.977 34.0312 137.602C33.6094 140.273 32.8125 142.664 31.6406 144.773C30.5156 146.93 28.9453 148.688 26.9297 150.047C24.9141 151.406 22.3359 152.086 19.1953 152.086C17.0391 152.086 15.2109 151.688 13.7109 150.891C12.2109 150.094 10.9922 149.016 10.0547 147.656C9.16406 146.344 8.50781 144.797 8.08594 143.016C7.66406 141.234 7.45312 139.383 7.45312 137.461C7.45312 133.664 7.89844 129.82 8.78906 125.93C9.67969 122.039 10.8281 118.195 12.2344 114.398C13.6875 110.602 15.3281 106.875 17.1562 103.219C18.9844 99.6094 20.8359 96.1406 22.7109 92.8125C22.7109 92.7188 22.7109 92.625 22.7109 92.5312C22.7109 92.3906 22.6875 92.1797 22.6406 91.8984C22.0312 93.0234 21.3281 94.1953 20.5312 95.4141C19.7812 96.5859 18.9141 97.6406 17.9297 98.5781C16.9922 99.5156 15.9375 100.289 14.7656 100.898C13.6406 101.508 12.375 101.812 10.9688 101.812C9 101.812 7.35938 101.344 6.04688 100.406C4.73438 99.4688 3.67969 98.2734 2.88281 96.8203C2.13281 95.3672 1.59375 93.7734 1.26562 92.0391C0.9375 90.3047 0.773438 88.6641 0.773438 87.1172C0.773438 85.3359 0.867188 83.5781 1.05469 81.8438C1.28906 80.1094 1.54688 78.4219 1.82812 76.7812C2.29688 74.1562 2.88281 71.3203 3.58594 68.2734C4.33594 65.1797 5.25 62.1328 6.32812 59.1328C7.40625 56.0859 8.64844 53.2266 10.0547 50.5547C11.5078 47.8828 13.1953 45.6094 15.1172 43.7344L15.6797 43.2422C16.2891 42.6328 16.9922 42.0469 17.7891 41.4844C18.5859 40.875 19.4062 40.5703 20.25 40.5703C20.7656 40.5703 21.2109 40.7109 21.5859 40.9922C22.0078 41.2734 22.3594 41.6484 22.6406 42.1172C22.9219 42.5391 23.1328 43.0078 23.2734 43.5234C23.4609 44.0391 23.5547 44.5312 23.5547 45C23.5547 45.5625 23.3438 46.1719 22.9219 46.8281H23.0625C25.9219 46.8281 27.8438 48.1406 28.8281 50.7656C29.3438 51.2344 29.7188 51.7969 29.9531 52.4531C30.2344 53.1094 30.375 53.8125 30.375 54.5625C30.375 54.9375 30.3516 55.3594 30.3047 55.8281C30.2578 56.25 30.1875 56.6484 30.0938 57.0234C30 57.4453 29.9297 57.8438 29.8828 58.2188C29.8359 58.5938 29.8125 58.9453 29.8125 59.2734C29.8125 60.3516 29.8359 61.6875 29.8828 63.2812C29.9297 64.875 30 66.5391 30.0938 68.2734C30.1875 70.0078 30.2812 71.7188 30.375 73.4062C30.5156 75.0469 30.6328 76.4766 30.7266 77.6953C31.0547 77.2734 31.4297 76.8984 31.8516 76.5703C32.3203 76.2422 32.8594 76.0781 33.4688 76.0781C33.9844 76.0781 34.5703 76.2656 35.2266 76.6406C35.9297 77.0156 36.5625 77.4844 37.125 78.0469C37.7344 78.6094 38.2266 79.2188 38.6016 79.875C39.0234 80.4844 39.2344 81.0469 39.2344 81.5625ZM19.8984 52.5938C19.8984 52.3125 19.8984 52.0078 19.8984 51.6797C19.9453 51.3516 20.0156 51 20.1094 50.625L19.6172 51.2578C19.2422 51.6797 18.8906 52.0781 18.5625 52.4531C18.2344 52.8281 17.9297 53.2266 17.6484 53.6484C16.4297 55.4297 15.3516 57.75 14.4141 60.6094C13.5234 63.4219 12.7734 66.3984 12.1641 69.5391C11.5547 72.6328 11.0859 75.6797 10.7578 78.6797C10.4766 81.6797 10.3359 84.2578 10.3359 86.4141C10.3359 87.4922 10.3594 88.5703 10.4062 89.6484C10.4531 90.7266 10.6875 91.7812 11.1094 92.8125C11.7656 92.1094 12.3047 91.3594 12.7266 90.5625C13.1484 89.7188 13.5469 88.8516 13.9219 87.9609C14.9531 85.6641 15.8438 82.9922 16.5938 79.9453C17.3438 76.8984 17.9531 73.7578 18.4219 70.5234C18.8906 67.2891 19.2422 64.125 19.4766 61.0312C19.7109 57.8906 19.8516 55.0781 19.8984 52.5938ZM25.2422 127.688C25.2422 124.5 25.1719 121.5 25.0312 118.688C24.8906 115.922 24.6797 112.945 24.3984 109.758C23.5547 111.773 22.6875 113.93 21.7969 116.227C20.9531 118.57 20.2031 120.914 19.5469 123.258C18.8906 125.648 18.3516 128.016 17.9297 130.359C17.5078 132.703 17.2969 134.93 17.2969 137.039V137.531C17.2969 138.609 17.3672 139.758 17.5078 140.977C17.6484 142.242 18.0938 143.273 18.8438 144.07H19.6172C20.5547 144.07 21.3281 143.742 21.9375 143.086C22.5938 142.477 23.1328 141.68 23.5547 140.695C23.9766 139.711 24.3047 138.609 24.5391 137.391C24.7734 136.172 24.9375 134.953 25.0312 133.734C25.125 132.516 25.1719 131.367 25.1719 130.289C25.2188 129.211 25.2422 128.344 25.2422 127.688ZM68.8438 86.1328C68.8438 87.5391 68.4453 88.9922 67.6484 90.4922C66.8984 91.9922 65.9141 93.375 64.6953 94.6406C63.4766 95.8594 62.0703 96.8672 60.4766 97.6641C58.9297 98.4609 57.3828 98.8594 55.8359 98.8594C53.6328 98.8594 51.7344 98.4375 50.1406 97.5938C48.5469 96.7031 47.1641 95.5312 45.9922 94.0781C44.8203 92.5781 43.8594 90.8906 43.1094 89.0156C42.4062 87.1406 41.8438 85.2188 41.4219 83.25C41 81.2344 40.6953 79.2422 40.5078 77.2734C40.3672 75.2578 40.2969 73.4297 40.2969 71.7891C40.2969 70.3828 40.3672 68.7188 40.5078 66.7969C40.6953 64.875 40.9766 62.8828 41.3516 60.8203C41.7734 58.7578 42.3359 56.7188 43.0391 54.7031C43.7422 52.6875 44.6094 50.8828 45.6406 49.2891C46.7188 47.6953 47.9844 46.4062 49.4375 45.4219C50.9375 44.4375 52.6484 43.9453 54.5703 43.9453C56.0703 43.9453 57.4062 44.25 58.5781 44.8594C59.7969 45.4688 60.8047 46.2891 61.6016 47.3203C62.4453 48.3047 63.0781 49.4531 63.5 50.7656C63.9688 52.0781 64.2031 53.4375 64.2031 54.8438C64.2031 56.6719 63.7812 58.6641 62.9375 60.8203C62.0938 62.9766 60.9922 65.0625 59.6328 67.0781C58.3203 69.0938 56.8203 70.9219 55.1328 72.5625C53.4922 74.1562 51.8516 75.375 50.2109 76.2188C50.3047 77.0625 50.4922 78.3047 50.7734 79.9453C51.0547 81.5391 51.4297 83.1328 51.8984 84.7266C52.4141 86.3203 53 87.7031 53.6562 88.875C54.3594 90.0469 55.1797 90.6328 56.1172 90.6328C56.5859 90.6328 56.9844 90.4922 57.3125 90.2109C57.6875 89.9297 58.0156 89.5547 58.2969 89.0859C58.5781 88.6172 58.8125 88.1016 59 87.5391C59.2344 86.9766 59.4453 86.4375 59.6328 85.9219L60.0547 84.9375C60.1484 84.7969 60.1953 84.7031 60.1953 84.6562C60.2422 84.6094 60.2891 84.5391 60.3359 84.4453C60.6641 83.8359 60.9688 83.2734 61.25 82.7578C61.5781 82.2422 62.0234 81.7969 62.5859 81.4219H62.5156C62.7031 81.2344 62.8906 81.1406 63.0781 81.1406C63.3125 81.0938 63.5234 81.0703 63.7109 81.0703C64.2266 81.0703 64.7891 81.2344 65.3984 81.5625C66.0078 81.8906 66.5703 82.3125 67.0859 82.8281C67.6016 83.2969 68.0234 83.8359 68.3516 84.4453C68.6797 85.0078 68.8438 85.5703 68.8438 86.1328ZM54.9219 55.125C54.9219 54.6562 54.8984 54.1641 54.8516 53.6484C54.8047 53.1328 54.6875 52.6875 54.5 52.3125C53.8438 53.1094 53.2578 54.0703 52.7422 55.1953C52.2734 56.2734 51.875 57.4219 51.5469 58.6406C51.2188 59.8125 50.9375 61.0078 50.7031 62.2266C50.5156 63.4453 50.375 64.5703 50.2812 65.6016C51.5 64.1484 52.5781 62.5078 53.5156 60.6797C54.4531 58.8047 54.9219 56.9531 54.9219 55.125ZM84.25 98.6484C84.25 99.7266 83.9219 100.43 83.2656 100.758C82.6562 101.086 81.9062 101.25 81.0156 101.25C80.2188 101.25 79.4219 101.18 78.625 101.039C77.875 100.945 77.1484 100.734 76.4453 100.406C75.7891 100.078 75.2031 99.6328 74.6875 99.0703C74.2188 98.5078 73.8906 97.7812 73.7031 96.8906C73.0469 94.0781 72.6719 91.3359 72.5781 88.6641C72.4844 85.9453 72.4375 83.1562 72.4375 80.2969V71.6484C72.4375 67.7109 72.6016 63.6328 72.9297 59.4141C73.2578 55.1484 73.6094 51.0469 73.9844 47.1094C73.9844 46.9688 74.0078 46.8047 74.0547 46.6172C74.1016 46.4297 74.125 46.2891 74.125 46.1953C74.1719 45.6797 74.2422 45.1172 74.3359 44.5078C74.4297 43.8984 74.5703 43.3594 74.7578 42.8906C74.9922 42.375 75.2969 41.9531 75.6719 41.625C76.0938 41.2969 76.6328 41.1328 77.2891 41.1328C78.0391 41.1328 78.7422 41.2969 79.3984 41.625C80.1016 41.9062 80.7109 42.3047 81.2266 42.8203C81.7422 43.2891 82.1406 43.875 82.4219 44.5781C82.75 45.2812 82.9141 46.0078 82.9141 46.7578C82.9141 47.5547 82.8906 48.4453 82.8438 49.4297C82.7969 50.3672 82.7266 51.2578 82.6328 52.1016C82.6328 52.3359 82.6094 52.5938 82.5625 52.875C82.5625 53.1562 82.5391 53.4141 82.4922 53.6484C83.1484 52.3359 83.8984 50.9766 84.7422 49.5703C85.5859 48.1172 86.5469 46.8047 87.625 45.6328C88.75 44.4141 89.9688 43.4297 91.2812 42.6797C92.6406 41.9297 94.1406 41.5547 95.7812 41.5547C97.1406 41.5547 98.2656 41.7656 99.1562 42.1875C100.047 42.6094 100.75 43.2188 101.266 44.0156C101.828 44.7656 102.203 45.6562 102.391 46.6875C102.625 47.7188 102.742 48.8203 102.742 49.9922C102.742 51.5859 102.695 53.2031 102.602 54.8438C102.508 56.4375 102.414 58.0312 102.32 59.625C102.18 61.2656 102.062 62.8828 101.969 64.4766C101.875 66.0703 101.828 67.6875 101.828 69.3281C101.828 71.2969 101.875 73.3359 101.969 75.4453C102.062 77.5078 102.203 79.5 102.391 81.4219C102.578 83.2969 102.789 85.0078 103.023 86.5547C103.258 88.0547 103.492 89.2266 103.727 90.0703C103.914 90.7734 104.102 91.5938 104.289 92.5312C104.523 93.4219 104.734 94.3594 104.922 95.3438C105.156 96.2812 105.344 97.1953 105.484 98.0859C105.625 98.9766 105.695 99.7734 105.695 100.477C105.695 101.508 105.273 102.164 104.43 102.445C103.633 102.727 102.836 102.867 102.039 102.867C101.242 102.867 100.328 102.797 99.2969 102.656C98.3125 102.562 97.4219 102.305 96.625 101.883C95.6406 101.18 94.9844 100.195 94.6562 98.9297C94.375 97.6641 94.1875 96.4219 94.0938 95.2031L93.8828 93.3047C93.7422 92.1797 93.5547 90.7031 93.3203 88.875C93.0859 87.0469 92.8516 85.0312 92.6172 82.8281C92.4297 80.625 92.2656 78.3516 92.125 76.0078C91.9844 73.6172 91.9141 71.2969 91.9141 69.0469C91.9141 67.0312 91.9844 65.0859 92.125 63.2109C92.3125 61.3359 92.5 59.4375 92.6875 57.5156C92.7812 56.5312 92.8516 55.7344 92.8984 55.125C92.9453 54.5156 93.0156 53.7188 93.1094 52.7344C92.1719 54.2344 91.2344 55.9922 90.2969 58.0078C89.3594 60.0234 88.4688 62.1328 87.625 64.3359C86.7812 66.4922 86.0078 68.6016 85.3047 70.6641C84.6484 72.7266 84.1328 74.5312 83.7578 76.0781L83.3359 77.625C83.1016 78.375 82.8906 79.125 82.7031 79.875C82.5625 80.625 82.4922 81.3281 82.4922 81.9844C82.4922 82.8281 82.5391 83.8125 82.6328 84.9375C82.7266 86.0156 82.8438 87.0469 82.9844 88.0312C83.125 89.2031 83.2891 90.3984 83.4766 91.6172C83.4766 91.7109 83.5234 92.0156 83.6172 92.5312C83.7109 93.0469 83.8047 93.6562 83.8984 94.3594C83.9922 95.0625 84.0625 95.8125 84.1094 96.6094C84.2031 97.3594 84.25 98.0391 84.25 98.6484ZM127.078 97.2422C127.078 97.7578 126.961 98.2031 126.727 98.5781C126.492 98.9062 126.188 99.1641 125.812 99.3516C125.484 99.5391 125.109 99.6562 124.688 99.7031C124.312 99.7969 123.938 99.8438 123.562 99.8438C123.047 99.8438 122.438 99.7734 121.734 99.6328C121.078 99.5391 120.422 99.375 119.766 99.1406C119.109 98.9062 118.5 98.625 117.938 98.2969C117.422 97.9219 117.023 97.4766 116.742 96.9609C116.461 96.4922 116.203 95.625 115.969 94.3594C115.781 93.0469 115.617 91.5469 115.477 89.8594C115.336 88.125 115.219 86.2969 115.125 84.375C115.031 82.4062 114.938 80.5312 114.844 78.75C114.797 76.9688 114.75 75.375 114.703 73.9688C114.703 72.5156 114.703 71.4375 114.703 70.7344C114.703 67.4531 114.75 64.2891 114.844 61.2422C114.984 58.1484 115.125 54.9844 115.266 51.75C115.031 51.75 114.797 51.7734 114.562 51.8203C114.328 51.8672 114.094 51.8906 113.859 51.8906C113.25 51.9844 112.617 52.0547 111.961 52.1016C111.352 52.1484 110.719 52.1719 110.062 52.1719C109.266 52.1719 108.562 52.0312 107.953 51.75C107.344 51.4688 107.039 50.8359 107.039 49.8516C107.039 48.6797 107.297 47.7422 107.812 47.0391C108.328 46.3359 108.984 45.7969 109.781 45.4219C110.578 45 111.445 44.7188 112.383 44.5781C113.32 44.3906 114.234 44.25 115.125 44.1562C115.266 44.1562 115.359 44.1562 115.406 44.1562C115.453 44.1094 115.547 44.0859 115.688 44.0859C115.734 43.5234 115.781 42.8438 115.828 42.0469C115.875 41.2031 115.922 40.2891 115.969 39.3047C116.016 37.7578 116.086 36.1172 116.18 34.3828C116.273 32.6016 116.367 30.9141 116.461 29.3203C116.555 27.6797 116.672 26.25 116.812 25.0312C116.953 23.7656 117.094 22.875 117.234 22.3594C117.469 21.75 117.727 21.2578 118.008 20.8828C118.336 20.5078 118.922 20.3203 119.766 20.3203C121.641 20.3203 123.094 20.9297 124.125 22.1484C125.156 23.3672 125.672 24.8672 125.672 26.6484C125.672 28.7109 125.602 30.7734 125.461 32.8359C125.367 34.8984 125.273 36.9844 125.18 39.0938L124.969 42.6797C126.141 42.5391 127.312 42.3281 128.484 42.0469C129.609 41.8125 130.734 41.6016 131.859 41.4141C133.031 41.2266 134.156 41.1328 135.234 41.1328C136.172 41.1328 136.898 41.3906 137.414 41.9062C137.93 42.375 138.188 43.0781 138.188 44.0156C138.188 45.0469 138 46.0547 137.625 47.0391C137.25 48.0234 136.594 48.7734 135.656 49.2891H135.727C135.539 49.3828 134.977 49.5234 134.039 49.7109C133.102 49.8516 132.023 49.9922 130.805 50.1328C129.633 50.2734 128.461 50.4141 127.289 50.5547C126.164 50.6953 125.32 50.7891 124.758 50.8359H124.688C124.594 53.4609 124.523 56.0625 124.477 58.6406C124.43 61.1719 124.406 63.75 124.406 66.375C124.406 69.9844 124.5 73.8281 124.688 77.9062C124.922 81.9375 125.297 85.7812 125.812 89.4375L126.375 92.6016C126.562 93.3984 126.727 94.1953 126.867 94.9922C127.008 95.7422 127.078 96.4922 127.078 97.2422ZM158.023 101.039C158.023 101.695 157.859 102.234 157.531 102.656C157.203 103.078 156.781 103.406 156.266 103.641C155.797 103.922 155.258 104.109 154.648 104.203C154.086 104.344 153.57 104.414 153.102 104.414C151.461 104.414 150.031 103.945 148.812 103.008C147.594 102.07 146.539 100.852 145.648 99.3516C144.758 97.8984 144.031 96.2344 143.469 94.3594C142.906 92.4375 142.438 90.5391 142.062 88.6641C141.688 86.7422 141.406 84.9141 141.219 83.1797C141.031 81.3984 140.891 79.875 140.797 78.6094C140.375 74.25 140.07 69.8203 139.883 65.3203C139.742 60.8203 139.672 56.3672 139.672 51.9609C139.672 39.9141 140.094 27.9844 140.938 16.1719C140.938 15.9844 140.938 15.7734 140.938 15.5391C140.984 15.3047 141.008 15.0703 141.008 14.8359C141.055 13.8516 141.102 12.7266 141.148 11.4609C141.195 10.1484 141.266 8.85938 141.359 7.59375C141.453 6.32812 141.547 5.17969 141.641 4.14844C141.781 3.07031 141.945 2.32031 142.133 1.89844V1.96875C142.32 1.3125 142.578 0.820313 142.906 0.492188C143.234 0.164062 143.797 0 144.594 0C146.281 0 147.711 0.5625 148.883 1.6875C150.055 2.8125 150.641 4.21875 150.641 5.90625C150.641 6.28125 150.617 6.65625 150.57 7.03125C150.57 7.35938 150.547 7.6875 150.5 8.01562C150.453 8.34375 150.406 8.67187 150.359 9C150.359 9.28125 150.359 9.53906 150.359 9.77344C150.219 11.6016 150.102 13.4297 150.008 15.2578C149.961 17.0391 149.891 18.8438 149.797 20.6719C149.562 24.7031 149.375 28.7344 149.234 32.7656C149.141 36.75 149.094 40.7812 149.094 44.8594C149.094 46.5938 149.117 48.8672 149.164 51.6797C149.211 54.4922 149.305 57.5625 149.445 60.8906C149.586 64.1719 149.773 67.5703 150.008 71.0859C150.289 74.6016 150.641 77.9531 151.062 81.1406C151.484 84.3281 151.977 87.2109 152.539 89.7891C153.148 92.3672 153.852 94.3594 154.648 95.7656C155.07 95.9531 155.469 96.2578 155.844 96.6797C156.266 97.0547 156.617 97.5 156.898 98.0156C157.227 98.4844 157.484 98.9766 157.672 99.4922C157.906 100.055 158.023 100.57 158.023 101.039ZM186.859 86.1328C186.859 87.5391 186.461 88.9922 185.664 90.4922C184.914 91.9922 183.93 93.375 182.711 94.6406C181.492 95.8594 180.086 96.8672 178.492 97.6641C176.945 98.4609 175.398 98.8594 173.852 98.8594C171.648 98.8594 169.75 98.4375 168.156 97.5938C166.562 96.7031 165.18 95.5312 164.008 94.0781C162.836 92.5781 161.875 90.8906 161.125 89.0156C160.422 87.1406 159.859 85.2188 159.438 83.25C159.016 81.2344 158.711 79.2422 158.523 77.2734C158.383 75.2578 158.312 73.4297 158.312 71.7891C158.312 70.3828 158.383 68.7188 158.523 66.7969C158.711 64.875 158.992 62.8828 159.367 60.8203C159.789 58.7578 160.352 56.7188 161.055 54.7031C161.758 52.6875 162.625 50.8828 163.656 49.2891C164.734 47.6953 166 46.4062 167.453 45.4219C168.953 44.4375 170.664 43.9453 172.586 43.9453C174.086 43.9453 175.422 44.25 176.594 44.8594C177.812 45.4688 178.82 46.2891 179.617 47.3203C180.461 48.3047 181.094 49.4531 181.516 50.7656C181.984 52.0781 182.219 53.4375 182.219 54.8438C182.219 56.6719 181.797 58.6641 180.953 60.8203C180.109 62.9766 179.008 65.0625 177.648 67.0781C176.336 69.0938 174.836 70.9219 173.148 72.5625C171.508 74.1562 169.867 75.375 168.227 76.2188C168.32 77.0625 168.508 78.3047 168.789 79.9453C169.07 81.5391 169.445 83.1328 169.914 84.7266C170.43 86.3203 171.016 87.7031 171.672 88.875C172.375 90.0469 173.195 90.6328 174.133 90.6328C174.602 90.6328 175 90.4922 175.328 90.2109C175.703 89.9297 176.031 89.5547 176.312 89.0859C176.594 88.6172 176.828 88.1016 177.016 87.5391C177.25 86.9766 177.461 86.4375 177.648 85.9219L178.07 84.9375C178.164 84.7969 178.211 84.7031 178.211 84.6562C178.258 84.6094 178.305 84.5391 178.352 84.4453C178.68 83.8359 178.984 83.2734 179.266 82.7578C179.594 82.2422 180.039 81.7969 180.602 81.4219H180.531C180.719 81.2344 180.906 81.1406 181.094 81.1406C181.328 81.0938 181.539 81.0703 181.727 81.0703C182.242 81.0703 182.805 81.2344 183.414 81.5625C184.023 81.8906 184.586 82.3125 185.102 82.8281C185.617 83.2969 186.039 83.8359 186.367 84.4453C186.695 85.0078 186.859 85.5703 186.859 86.1328ZM172.938 55.125C172.938 54.6562 172.914 54.1641 172.867 53.6484C172.82 53.1328 172.703 52.6875 172.516 52.3125C171.859 53.1094 171.273 54.0703 170.758 55.1953C170.289 56.2734 169.891 57.4219 169.562 58.6406C169.234 59.8125 168.953 61.0078 168.719 62.2266C168.531 63.4453 168.391 64.5703 168.297 65.6016C169.516 64.1484 170.594 62.5078 171.531 60.6797C172.469 58.8047 172.938 56.9531 172.938 55.125Z" fill="url(#paint0_linear_2056_24)"/>
<path d="M203.65 101.4C201.15 101.4 199 100.5 197.2 98.7C195.4 96.9 194.5 94.75 194.5 92.25C194.5 89.55 195.4 87.3 197.2 85.5C199.1 83.7 201.25 82.8 203.65 82.8C206.25 82.8 208.45 83.75 210.25 85.65C212.05 87.45 212.95 89.65 212.95 92.25C212.95 94.65 212.05 96.8 210.25 98.7C208.55 100.5 206.35 101.4 203.65 101.4Z" fill="#FFCC99"/>
<defs>
<linearGradient id="paint0_linear_2056_24" x1="36.3846" y1="103.863" x2="153.46" y2="89.9087" gradientUnits="userSpaceOnUse">
<stop stop-color="#6699FF"/>
<stop offset="1" stop-color="#E477FF"/>
</linearGradient>
</defs>
</svg>
