<svg width="378" height="137" viewBox="0 0 378 137" fill="none" xmlns="http://www.w3.org/2000/svg">
<path d="M31.392 75.48C26.4 75.48 21.984 74.36 18.144 72.12C14.304 69.816 11.296 66.648 9.12 62.616C6.944 58.584 5.856 53.976 5.856 48.792C5.856 43.544 7.008 38.904 9.312 34.872C11.616 30.84 14.752 27.704 18.72 25.464C22.752 23.16 27.36 22.008 32.544 22.008C37.664 22.008 42.208 23.16 46.176 25.464C50.208 27.704 53.344 30.84 55.584 34.872C57.888 38.904 59.072 43.544 59.136 48.792L54.336 50.424C54.336 55.288 53.344 59.608 51.36 63.384C49.44 67.16 46.752 70.136 43.296 72.312C39.84 74.424 35.872 75.48 31.392 75.48ZM32.544 96.024C27.68 96.024 23.296 95.096 19.392 93.24C15.552 91.384 12.32 88.792 9.696 85.464C8.992 84.632 8.704 83.704 8.832 82.68C8.96 81.72 9.472 80.952 10.368 80.376C11.328 79.736 12.352 79.512 13.44 79.704C14.528 79.896 15.392 80.44 16.032 81.336C17.824 83.576 20.128 85.368 22.944 86.712C25.76 88.056 29.024 88.728 32.736 88.728C36.128 88.728 39.232 87.896 42.048 86.232C44.864 84.632 47.072 82.296 48.672 79.224C50.336 76.152 51.168 72.504 51.168 68.28V54.072L54.048 47.544L59.136 48.792V68.76C59.136 73.88 57.984 78.488 55.68 82.584C53.376 86.744 50.24 90.008 46.272 92.376C42.304 94.808 37.728 96.024 32.544 96.024ZM32.544 68.184C36.192 68.184 39.392 67.352 42.144 65.688C44.96 64.024 47.168 61.752 48.768 58.872C50.368 55.928 51.168 52.568 51.168 48.792C51.168 45.016 50.368 41.656 48.768 38.712C47.168 35.768 44.96 33.464 42.144 31.8C39.392 30.136 36.192 29.304 32.544 29.304C28.896 29.304 25.664 30.136 22.848 31.8C20.032 33.464 17.792 35.768 16.128 38.712C14.528 41.656 13.728 45.016 13.728 48.792C13.728 52.568 14.528 55.928 16.128 58.872C17.792 61.752 20.032 64.024 22.848 65.688C25.664 67.352 28.896 68.184 32.544 68.184ZM98.111 75.48C92.863 75.48 88.223 74.36 84.191 72.12C80.159 69.816 76.991 66.648 74.687 62.616C72.383 58.584 71.231 53.976 71.231 48.792C71.231 43.544 72.319 38.936 74.495 34.968C76.671 30.936 79.647 27.768 83.423 25.464C87.263 23.16 91.679 22.008 96.671 22.008C101.535 22.008 105.759 23.128 109.343 25.368C112.991 27.544 115.775 30.584 117.695 34.488C119.679 38.392 120.671 42.84 120.671 47.832C120.671 48.92 120.319 49.816 119.615 50.52C118.911 51.16 118.015 51.48 116.927 51.48H76.799V44.856H117.407L113.279 47.736C113.343 44.216 112.703 41.048 111.359 38.232C110.015 35.416 108.095 33.208 105.599 31.608C103.103 30.008 100.127 29.208 96.671 29.208C93.023 29.208 89.823 30.04 87.071 31.704C84.383 33.368 82.303 35.704 80.831 38.712C79.423 41.656 78.719 45.016 78.719 48.792C78.719 52.568 79.551 55.928 81.215 58.872C82.879 61.816 85.151 64.12 88.031 65.784C90.975 67.448 94.335 68.28 98.111 68.28C100.287 68.28 102.495 67.896 104.735 67.128C107.039 66.36 108.863 65.4 110.207 64.248C110.975 63.672 111.839 63.384 112.799 63.384C113.823 63.32 114.655 63.576 115.295 64.152C116.255 64.984 116.735 65.88 116.735 66.84C116.799 67.8 116.383 68.632 115.487 69.336C113.375 71.128 110.687 72.6 107.423 73.752C104.159 74.904 101.055 75.48 98.111 75.48ZM178.503 75C177.287 75 176.295 74.616 175.527 73.848C174.759 73.08 174.375 72.12 174.375 70.968V46.488C174.375 42.584 173.639 39.416 172.167 36.984C170.759 34.488 168.807 32.632 166.311 31.416C163.815 30.136 160.967 29.496 157.767 29.496C154.759 29.496 152.039 30.104 149.607 31.32C147.239 32.472 145.351 34.072 143.943 36.12C142.535 38.104 141.831 40.408 141.831 43.032H136.263C136.391 39 137.447 35.416 139.431 32.28C141.479 29.08 144.199 26.552 147.591 24.696C150.983 22.84 154.759 21.912 158.919 21.912C163.399 21.912 167.399 22.872 170.919 24.792C174.503 26.648 177.319 29.4 179.367 33.048C181.479 36.696 182.535 41.176 182.535 46.488V70.968C182.535 72.12 182.151 73.08 181.383 73.848C180.615 74.616 179.655 75 178.503 75ZM137.799 75C136.519 75 135.495 74.648 134.727 73.944C134.023 73.176 133.671 72.184 133.671 70.968V26.616C133.671 25.336 134.023 24.344 134.727 23.64C135.495 22.872 136.519 22.488 137.799 22.488C139.015 22.488 139.975 22.872 140.679 23.64C141.447 24.344 141.831 25.336 141.831 26.616V70.968C141.831 72.184 141.447 73.176 140.679 73.944C139.975 74.648 139.015 75 137.799 75ZM219.392 75C216.064 75 213.088 74.2 210.464 72.6C207.84 71 205.76 68.792 204.224 65.976C202.752 63.16 202.016 59.992 202.016 56.472V9.816C202.016 8.664 202.368 7.704 203.072 6.936C203.84 6.168 204.832 5.784 206.048 5.784C207.2 5.784 208.16 6.168 208.928 6.936C209.696 7.704 210.08 8.664 210.08 9.816V56.472C210.08 59.48 210.944 61.976 212.672 63.96C214.464 65.944 216.704 66.936 219.392 66.936H222.272C223.296 66.936 224.16 67.32 224.864 68.088C225.568 68.856 225.92 69.816 225.92 70.968C225.92 72.184 225.472 73.176 224.576 73.944C223.744 74.648 222.656 75 221.312 75H219.392ZM196.352 31.416C195.264 31.416 194.368 31.096 193.664 30.456C192.96 29.752 192.608 28.92 192.608 27.96C192.608 26.936 192.96 26.104 193.664 25.464C194.368 24.76 195.264 24.408 196.352 24.408H220.064C221.152 24.408 222.048 24.76 222.752 25.464C223.456 26.104 223.808 26.936 223.808 27.96C223.808 28.92 223.456 29.752 222.752 30.456C222.048 31.096 221.152 31.416 220.064 31.416H196.352ZM250.165 75C247.477 75 245.109 74.296 243.061 72.888C241.013 71.416 239.413 69.4 238.261 66.84C237.109 64.28 236.533 61.336 236.533 58.008V4.056C236.533 2.84 236.885 1.88 237.589 1.17599C238.357 0.407997 239.349 0.0239983 240.565 0.0239983C241.717 0.0239983 242.645 0.407997 243.349 1.17599C244.117 1.88 244.501 2.84 244.501 4.056V58.008C244.501 60.632 245.013 62.808 246.037 64.536C247.125 66.2 248.501 67.032 250.165 67.032H252.565C253.589 67.032 254.421 67.416 255.061 68.184C255.701 68.888 256.021 69.816 256.021 70.968C256.021 72.184 255.541 73.176 254.581 73.944C253.685 74.648 252.501 75 251.029 75H250.165ZM287.799 75.48C282.551 75.48 277.911 74.36 273.879 72.12C269.847 69.816 266.679 66.648 264.375 62.616C262.071 58.584 260.919 53.976 260.919 48.792C260.919 43.544 262.007 38.936 264.183 34.968C266.359 30.936 269.335 27.768 273.111 25.464C276.951 23.16 281.367 22.008 286.359 22.008C291.223 22.008 295.447 23.128 299.031 25.368C302.679 27.544 305.463 30.584 307.383 34.488C309.367 38.392 310.359 42.84 310.359 47.832C310.359 48.92 310.007 49.816 309.302 50.52C308.599 51.16 307.703 51.48 306.615 51.48H266.487V44.856H307.095L302.967 47.736C303.031 44.216 302.391 41.048 301.047 38.232C299.703 35.416 297.783 33.208 295.287 31.608C292.791 30.008 289.815 29.208 286.359 29.208C282.711 29.208 279.511 30.04 276.759 31.704C274.071 33.368 271.991 35.704 270.519 38.712C269.111 41.656 268.407 45.016 268.407 48.792C268.407 52.568 269.239 55.928 270.903 58.872C272.567 61.816 274.839 64.12 277.719 65.784C280.663 67.448 284.023 68.28 287.799 68.28C289.975 68.28 292.183 67.896 294.423 67.128C296.727 66.36 298.551 65.4 299.895 64.248C300.663 63.672 301.527 63.384 302.487 63.384C303.511 63.32 304.343 63.576 304.983 64.152C305.943 64.984 306.423 65.88 306.423 66.84C306.487 67.8 306.071 68.632 305.175 69.336C303.063 71.128 300.375 72.6 297.111 73.752C293.847 74.904 290.743 75.48 287.799 75.48Z" fill="url(#paint0_linear_2043_58)"/>
<path d="M329.65 74.4C327.15 74.4 325 73.5 323.2 71.7C321.4 69.9 320.5 67.75 320.5 65.25C320.5 62.55 321.4 60.3 323.2 58.5C325.1 56.7 327.25 55.8 329.65 55.8C332.25 55.8 334.45 56.75 336.25 58.65C338.05 60.45 338.95 62.65 338.95 65.25C338.95 67.65 338.05 69.8 336.25 71.7C334.55 73.5 332.35 74.4 329.65 74.4Z" fill="#FFCC99"/>
<path d="M219.528 106C219.165 106 218.867 105.893 218.632 105.68C218.397 105.445 218.28 105.147 218.28 104.784V95.568C218.28 94.0533 217.885 92.8587 217.096 91.984C216.307 91.088 215.293 90.64 214.056 90.64C212.733 90.64 211.645 91.088 210.792 91.984C209.96 92.8587 209.555 94.032 209.576 95.504H207.368C207.389 94.0747 207.699 92.816 208.296 91.728C208.893 90.64 209.715 89.7973 210.76 89.2C211.805 88.6027 212.989 88.304 214.312 88.304C215.571 88.304 216.68 88.6027 217.64 89.2C218.621 89.7973 219.379 90.64 219.912 91.728C220.467 92.816 220.744 94.096 220.744 95.568V104.784C220.744 105.147 220.627 105.445 220.392 105.68C220.179 105.893 219.891 106 219.528 106ZM197.128 106C196.744 106 196.435 105.893 196.2 105.68C195.987 105.445 195.88 105.147 195.88 104.784V89.744C195.88 89.3813 195.987 89.0827 196.2 88.848C196.435 88.6133 196.744 88.496 197.128 88.496C197.491 88.496 197.779 88.6133 197.992 88.848C198.227 89.0827 198.344 89.3813 198.344 89.744V104.784C198.344 105.147 198.227 105.445 197.992 105.68C197.779 105.893 197.491 106 197.128 106ZM208.36 106C207.997 106 207.699 105.893 207.464 105.68C207.229 105.445 207.112 105.147 207.112 104.784V95.568C207.112 94.0533 206.717 92.8587 205.928 91.984C205.139 91.088 204.125 90.64 202.888 90.64C201.565 90.64 200.477 91.0773 199.624 91.952C198.771 92.8053 198.344 93.9253 198.344 95.312H196.584C196.627 93.9467 196.925 92.7413 197.48 91.696C198.056 90.6293 198.835 89.7973 199.816 89.2C200.797 88.6027 201.907 88.304 203.144 88.304C204.403 88.304 205.512 88.6027 206.472 89.2C207.453 89.7973 208.211 90.64 208.744 91.728C209.299 92.816 209.576 94.096 209.576 95.568V104.784C209.576 105.147 209.459 105.445 209.224 105.68C209.011 105.893 208.723 106 208.36 106ZM234.405 106.16C232.762 106.16 231.29 105.776 229.989 105.008C228.687 104.219 227.652 103.152 226.885 101.808C226.138 100.464 225.765 98.9493 225.765 97.264C225.765 95.5573 226.149 94.032 226.917 92.688C227.706 91.344 228.773 90.288 230.117 89.52C231.461 88.7307 232.975 88.336 234.661 88.336C236.346 88.336 237.85 88.7307 239.173 89.52C240.517 90.288 241.573 91.344 242.341 92.688C243.13 94.032 243.535 95.5573 243.557 97.264L242.565 98.032C242.565 99.568 242.202 100.955 241.477 102.192C240.773 103.408 239.802 104.379 238.565 105.104C237.349 105.808 235.962 106.16 234.405 106.16ZM234.661 103.92C235.898 103.92 236.997 103.632 237.957 103.056C238.938 102.48 239.706 101.691 240.26 100.688C240.837 99.664 241.125 98.5227 241.125 97.264C241.125 95.984 240.837 94.8427 240.26 93.84C239.706 92.8373 238.938 92.048 237.957 91.472C236.997 90.8747 235.898 90.576 234.661 90.576C233.445 90.576 232.346 90.8747 231.365 91.472C230.383 92.048 229.605 92.8373 229.029 93.84C228.453 94.8427 228.165 95.984 228.165 97.264C228.165 98.5227 228.453 99.664 229.029 100.688C229.605 101.691 230.383 102.48 231.365 103.056C232.346 103.632 233.445 103.92 234.661 103.92ZM242.309 106C241.946 106 241.647 105.893 241.413 105.68C241.178 105.445 241.061 105.147 241.061 104.784V99.312L241.669 96.784L243.557 97.264V104.784C243.557 105.147 243.439 105.445 243.205 105.68C242.97 105.893 242.671 106 242.309 106ZM256.817 106.16C255.131 106.16 253.617 105.776 252.273 105.008C250.929 104.219 249.862 103.152 249.073 101.808C248.305 100.464 247.921 98.9387 247.921 97.232C247.921 95.5467 248.294 94.032 249.041 92.688C249.809 91.344 250.843 90.288 252.145 89.52C253.446 88.7307 254.918 88.336 256.561 88.336C257.99 88.336 259.281 88.6453 260.433 89.264C261.585 89.8613 262.513 90.6613 263.217 91.664V82.256C263.217 81.872 263.334 81.5733 263.569 81.36C263.803 81.1253 264.102 81.008 264.465 81.008C264.827 81.008 265.126 81.1253 265.361 81.36C265.595 81.5733 265.713 81.872 265.713 82.256V97.36C265.67 99.024 265.254 100.528 264.465 101.872C263.697 103.195 262.641 104.24 261.297 105.008C259.974 105.776 258.481 106.16 256.817 106.16ZM256.817 103.92C258.054 103.92 259.153 103.632 260.113 103.056C261.094 102.459 261.862 101.659 262.417 100.656C262.993 99.6533 263.281 98.512 263.281 97.232C263.281 95.9733 262.993 94.8427 262.417 93.84C261.862 92.816 261.094 92.016 260.113 91.44C259.153 90.864 258.054 90.576 256.817 90.576C255.601 90.576 254.502 90.864 253.521 91.44C252.539 92.016 251.761 92.816 251.185 93.84C250.609 94.8427 250.321 95.9733 250.321 97.232C250.321 98.512 250.609 99.6533 251.185 100.656C251.761 101.659 252.539 102.459 253.521 103.056C254.502 103.632 255.601 103.92 256.817 103.92ZM272.998 95.216C273.062 93.8933 273.403 92.7093 274.022 91.664C274.662 90.6187 275.483 89.7973 276.486 89.2C277.51 88.6027 278.64 88.304 279.878 88.304C280.859 88.304 281.616 88.4427 282.15 88.72C282.683 88.9973 282.886 89.4027 282.758 89.936C282.672 90.256 282.523 90.4693 282.31 90.576C282.118 90.6827 281.872 90.7253 281.574 90.704C281.296 90.6827 280.976 90.6613 280.614 90.64C279.419 90.5333 278.352 90.6613 277.414 91.024C276.496 91.3653 275.76 91.8987 275.206 92.624C274.672 93.3493 274.406 94.2133 274.406 95.216H272.998ZM273.19 106C272.806 106 272.507 105.893 272.294 105.68C272.08 105.467 271.974 105.168 271.974 104.784V89.712C271.974 89.328 272.08 89.0293 272.294 88.816C272.507 88.6027 272.806 88.496 273.19 88.496C273.574 88.496 273.872 88.6027 274.086 88.816C274.299 89.0293 274.406 89.328 274.406 89.712V104.784C274.406 105.168 274.299 105.467 274.086 105.68C273.872 105.893 273.574 106 273.19 106ZM288.89 106C288.506 106 288.197 105.893 287.962 105.68C287.749 105.445 287.642 105.136 287.642 104.752V89.744C287.642 89.36 287.749 89.0613 287.962 88.848C288.197 88.6133 288.506 88.496 288.89 88.496C289.253 88.496 289.541 88.6133 289.754 88.848C289.989 89.0613 290.106 89.36 290.106 89.744V104.752C290.106 105.136 289.989 105.445 289.754 105.68C289.541 105.893 289.253 106 288.89 106ZM288.858 85.168C288.389 85.168 287.983 84.9973 287.642 84.656C287.301 84.3147 287.13 83.8987 287.13 83.408C287.13 82.8747 287.301 82.4587 287.642 82.16C288.005 81.84 288.421 81.68 288.89 81.68C289.338 81.68 289.733 81.84 290.074 82.16C290.437 82.4587 290.618 82.8747 290.618 83.408C290.618 83.8987 290.447 84.3147 290.106 84.656C289.765 84.9973 289.349 85.168 288.858 85.168ZM304.848 106.16C303.163 106.16 301.648 105.776 300.304 105.008C298.96 104.219 297.893 103.152 297.104 101.808C296.336 100.464 295.952 98.9387 295.952 97.232C295.952 95.5467 296.325 94.032 297.072 92.688C297.84 91.344 298.875 90.288 300.176 89.52C301.477 88.7307 302.949 88.336 304.592 88.336C306.021 88.336 307.312 88.6453 308.464 89.264C309.616 89.8613 310.544 90.6613 311.248 91.664V82.256C311.248 81.872 311.365 81.5733 311.6 81.36C311.835 81.1253 312.133 81.008 312.496 81.008C312.859 81.008 313.157 81.1253 313.392 81.36C313.627 81.5733 313.744 81.872 313.744 82.256V97.36C313.701 99.024 313.285 100.528 312.496 101.872C311.728 103.195 310.672 104.24 309.328 105.008C308.005 105.776 306.512 106.16 304.848 106.16ZM304.848 103.92C306.085 103.92 307.184 103.632 308.144 103.056C309.125 102.459 309.893 101.659 310.448 100.656C311.024 99.6533 311.312 98.512 311.312 97.232C311.312 95.9733 311.024 94.8427 310.448 93.84C309.893 92.816 309.125 92.016 308.144 91.44C307.184 90.864 306.085 90.576 304.848 90.576C303.632 90.576 302.533 90.864 301.552 91.44C300.571 92.016 299.792 92.816 299.216 93.84C298.64 94.8427 298.352 95.9733 298.352 97.232C298.352 98.512 298.64 99.6533 299.216 100.656C299.792 101.659 300.571 102.459 301.552 103.056C302.533 103.632 303.632 103.92 304.848 103.92Z" fill="#999999"/>
<defs>
<linearGradient id="paint0_linear_2043_58" x1="50.9319" y1="75" x2="227.03" y2="51.9525" gradientUnits="userSpaceOnUse">
<stop stop-color="#6699FF"/>
<stop offset="1" stop-color="#E477FF"/>
</linearGradient>
</defs>
</svg>
